<?xml version="1.0" encoding="utf-8"?>
<svg xmlns="http://www.w3.org/2000/svg" viewBox="42.344 196.992 325.623 136.589" xmlns:bx="https://boxy-svg.com">
  <path d="M 143.269 246.375 Q 143.269 251.638 141.968 255.777 Q 140.667 259.916 138.45 263.079 Q 136.232 266.243 133.335 268.49 Q 130.437 270.737 127.274 272.156 Q 124.11 273.575 120.888 274.226 Q 117.665 274.876 114.827 274.876 L 80.058 274.876 L 80.058 259.502 L 114.827 259.502 Q 117.783 259.265 120.178 258.29 Q 122.573 257.314 124.288 255.658 Q 126.003 254.003 126.949 251.667 Q 127.895 249.331 127.895 246.375 L 127.895 239.397 Q 127.599 236.5 126.653 234.076 Q 125.707 231.651 124.081 229.936 Q 122.455 228.222 120.149 227.246 Q 117.842 226.27 114.827 226.27 L 80.176 226.27 Q 77.101 226.27 75.505 227.867 Q 73.908 229.463 73.908 232.479 L 73.908 295.69 L 58.534 295.69 L 58.534 232.479 Q 58.534 226.566 60.693 222.427 Q 62.851 218.288 66.073 215.745 Q 69.296 213.202 73.08 212.049 Q 76.865 210.896 80.058 210.896 L 114.827 210.896 Q 120.03 210.896 124.169 212.227 Q 128.309 213.557 131.472 215.775 Q 134.636 217.992 136.853 220.889 Q 139.07 223.787 140.519 226.95 Q 141.968 230.114 142.618 233.337 Q 143.269 236.559 143.269 239.397 Z M 232.312 295.69 L 176.847 295.69 Q 174.718 295.69 172.264 295.187 Q 169.81 294.685 167.416 293.62 Q 165.021 292.556 162.833 290.871 Q 160.645 289.186 158.96 286.791 Q 157.275 284.396 156.269 281.233 Q 155.264 278.069 155.264 274.107 L 155.264 232.479 Q 155.264 230.35 155.767 227.896 Q 156.269 225.443 157.334 223.048 Q 158.398 220.653 160.113 218.465 Q 161.828 216.277 164.223 214.592 Q 166.617 212.907 169.751 211.902 Q 172.885 210.896 176.847 210.896 L 232.312 210.896 L 232.312 226.27 L 176.847 226.27 Q 173.831 226.27 172.235 227.867 Q 170.638 229.463 170.638 232.597 L 170.638 274.107 Q 170.638 277.064 172.264 278.69 Q 173.89 280.316 176.847 280.316 L 232.312 280.316 Z M 331.469 277.064 Q 331.469 279.902 330.493 283.154 Q 329.518 286.406 327.3 289.186 Q 325.083 291.965 321.535 293.827 Q 317.987 295.69 312.843 295.69 L 254.481 295.69 Q 252.825 295.69 251.406 295.099 Q 249.987 294.507 248.952 293.473 Q 247.917 292.438 247.326 291.019 Q 246.734 289.6 246.734 287.944 L 246.734 218.642 Q 246.734 217.046 247.326 215.627 Q 247.917 214.208 248.952 213.143 Q 249.987 212.079 251.406 211.488 Q 252.825 210.896 254.481 210.896 L 305.924 210.896 Q 308.763 210.896 312.015 211.902 Q 315.267 212.907 318.076 215.124 Q 320.885 217.342 322.747 220.889 Q 324.61 224.437 324.61 229.582 L 324.61 232.479 Q 324.61 236.559 323.25 241.26 Q 321.89 245.961 318.874 250.159 Q 321.476 251.756 323.752 254.003 Q 326.029 256.25 327.744 259.206 Q 329.459 262.163 330.464 265.888 Q 331.469 269.613 331.469 274.107 Z M 316.095 274.107 Q 316.095 271.092 315.149 268.697 Q 314.203 266.302 312.488 264.587 Q 310.773 262.872 308.349 261.956 Q 305.924 261.039 302.909 261.039 L 268.258 261.039 L 268.258 245.547 L 295.99 245.547 Q 299.006 245.547 301.431 244.631 Q 303.855 243.714 305.57 241.999 Q 307.284 240.284 308.201 237.89 Q 309.118 235.495 309.118 232.479 L 309.118 229.582 Q 309.118 226.27 305.924 226.27 L 262.109 226.27 L 262.109 280.316 L 312.843 280.316 Q 313.257 280.316 313.848 280.257 Q 314.439 280.198 314.912 279.902 Q 315.385 279.606 315.74 278.897 Q 316.095 278.187 316.095 276.946 Z" style="text-wrap-mode: nowrap; stroke: rgb(255, 0, 0); fill: rgb(255, 0, 0);"/>
  <path d="M 291.72 327.974 Q 290.025 328.002 288.835 327.653 Q 287.646 327.304 286.675 326.511 L 287.947 324.228 Q 288.671 324.693 289.526 324.987 Q 290.38 325.281 291.378 325.267 Q 292.417 325.253 292.964 324.543 Q 293.511 323.832 293.511 322.642 L 293.511 321.015 Q 293.156 322.041 292.424 322.423 Q 291.693 322.806 290.654 322.806 Q 289.204 322.806 288.377 322.041 Q 287.55 321.275 287.208 319.949 Q 286.867 318.623 286.867 316.941 L 286.867 310.337 Q 286.867 308.546 287.222 307.145 Q 287.578 305.744 288.439 304.937 Q 289.3 304.13 290.804 304.144 Q 291.857 304.144 292.547 304.677 Q 293.238 305.211 293.511 306.209 L 293.511 304.39 L 297.134 304.39 L 297.134 322.369 Q 297.134 323.586 296.861 324.604 Q 296.587 325.623 295.958 326.368 Q 295.329 327.113 294.29 327.53 Q 293.251 327.947 291.72 327.974 Z M 292.089 320.058 Q 292.581 320.058 292.896 319.764 Q 293.21 319.47 293.361 318.753 Q 293.511 318.035 293.511 316.75 L 293.511 310.037 Q 293.511 308.683 293.183 307.877 Q 292.855 307.07 291.994 307.07 Q 291.337 307.07 291.023 307.453 Q 290.708 307.836 290.613 308.499 Q 290.517 309.162 290.517 310.023 L 290.517 316.777 Q 290.517 318.294 290.804 319.176 Q 291.091 320.058 292.089 320.058 Z M 300.646 324.898 L 300.646 304.39 L 304.296 304.39 L 304.296 306.673 Q 304.652 305.484 305.534 304.814 Q 306.415 304.144 307.783 304.144 Q 307.81 304.144 307.817 304.609 Q 307.824 305.074 307.824 305.675 Q 307.824 306.277 307.824 306.742 Q 307.824 307.207 307.824 307.207 Q 307.195 307.207 306.463 307.357 Q 305.732 307.507 305.137 307.815 Q 304.542 308.123 304.296 308.628 L 304.296 324.898 Z M 315.012 325.144 Q 313.535 325.144 312.537 324.686 Q 311.539 324.228 310.958 323.36 Q 310.377 322.492 310.124 321.241 Q 309.871 319.99 309.871 318.39 L 309.871 310.72 Q 309.871 308.793 310.37 307.309 Q 310.869 305.826 312.004 304.985 Q 313.138 304.144 315.012 304.144 Q 316.433 304.144 317.411 304.623 Q 318.388 305.101 318.983 305.983 Q 319.578 306.865 319.851 308.068 Q 320.125 309.271 320.125 310.72 L 320.125 318.39 Q 320.125 319.962 319.886 321.207 Q 319.646 322.451 319.065 323.333 Q 318.484 324.214 317.5 324.679 Q 316.515 325.144 315.012 325.144 Z M 315.012 322.218 Q 315.627 322.218 315.941 321.842 Q 316.256 321.466 316.365 320.796 Q 316.474 320.127 316.474 319.252 L 316.474 310.078 Q 316.474 309.148 316.351 308.478 Q 316.228 307.808 315.914 307.439 Q 315.599 307.07 315.012 307.07 Q 314.396 307.07 314.075 307.439 Q 313.754 307.808 313.637 308.478 Q 313.521 309.148 313.521 310.078 L 313.521 319.252 Q 313.521 320.127 313.637 320.796 Q 313.754 321.466 314.075 321.842 Q 314.396 322.218 315.012 322.218 Z M 326.944 325.158 Q 325.727 325.158 324.913 324.611 Q 324.1 324.064 323.697 322.977 Q 323.293 321.89 323.293 320.25 L 323.293 304.39 L 326.93 304.39 L 326.93 319.689 Q 326.93 320.865 327.217 321.521 Q 327.504 322.177 328.42 322.177 Q 329.377 322.177 329.726 321.432 Q 330.075 320.687 330.075 319.716 L 330.088 304.39 L 333.698 304.39 L 333.698 324.898 L 330.075 324.898 L 330.075 322.765 Q 329.692 323.804 328.967 324.481 Q 328.242 325.158 326.944 325.158 Z M 337.238 328.794 L 337.238 304.39 L 340.861 304.39 L 340.861 306.236 Q 341.257 305.224 342.105 304.705 Q 342.953 304.185 343.814 304.185 Q 345.386 304.185 346.193 305.026 Q 347 305.867 347.287 307.316 Q 347.574 308.765 347.574 310.57 L 347.574 318.048 Q 347.574 320.017 347.3 321.63 Q 347.027 323.244 346.145 324.194 Q 345.263 325.144 343.459 325.144 Q 342.625 325.144 341.941 324.693 Q 341.257 324.242 340.861 323.654 L 340.861 328.794 Z M 342.461 322.205 Q 343.377 322.205 343.65 321.309 Q 343.923 320.414 343.923 318.746 L 343.923 310.242 Q 343.923 309.353 343.835 308.635 Q 343.746 307.918 343.445 307.494 Q 343.144 307.07 342.488 307.07 Q 341.982 307.07 341.62 307.33 Q 341.257 307.589 341.059 308.273 Q 340.861 308.957 340.861 310.228 L 340.861 318.896 Q 340.861 320.468 341.162 321.336 Q 341.462 322.205 342.461 322.205 Z" style="text-wrap-mode: nowrap; stroke: rgb(255, 0, 0); fill: rgb(255, 0, 0);"/>
  <g id="SVGRepo_iconCarrier" transform="matrix(1, 0, 0, 1, 99.018576, 228.336011)">
    <g transform="matrix(1, 0, 0, 1, 224.861664, -20.738155)">
      <path fill-rule="evenodd" clip-rule="evenodd" d="M19 12C19 15.866 15.866 19 12 19C8.13401 19 5 15.866 5 12C5 8.13401 8.13401 5 12 5C13.8565 5 15.637 5.7375 16.9497 7.05025C18.2625 8.36301 19 10.1435 19 12Z" stroke-width="1.5" stroke-linecap="round" stroke-linejoin="round" style="stroke: rgb(255, 0, 0); fill: none;"/>
      <path d="M14.646 9.00002C13.0379 7.58179 10.5975 7.6838 9.11336 9.23129C7.62921 10.7788 7.62921 13.2213 9.11336 14.7688C10.5975 16.3162 13.0379 16.4182 14.646 15" stroke-width="1.5" stroke-linecap="round" stroke-linejoin="round" style="stroke: rgb(255, 0, 0); fill: none;"/>
    </g>
  </g>
  <defs>
    <bx:guide x="-148.968" y="381.353" angle="0"/>
  </defs>
  <g id="SVGRepo_bgCarrier" stroke-width="0" transform="matrix(1, 0, 0, 1, 99.018578, 228.336014)"/>
  <g id="SVGRepo_tracerCarrier" stroke-linecap="round" stroke-linejoin="round" transform="matrix(1, 0, 0, 1, 99.018578, 228.336014)"/>
  <path d="M 335.75 218.257 C 335.792 218.164 335.812 218.118 335.841 218.104 C 335.866 218.092 335.896 218.092 335.92 218.104 C 335.949 218.118 335.97 218.164 336.011 218.257 L 336.339 218.994 C 336.352 219.022 336.358 219.035 336.367 219.045 C 336.375 219.055 336.386 219.062 336.397 219.067 C 336.41 219.073 336.425 219.075 336.455 219.078 L 337.257 219.163 C 337.358 219.173 337.409 219.178 337.431 219.201 C 337.45 219.221 337.46 219.249 337.456 219.276 C 337.451 219.308 337.413 219.342 337.338 219.41 L 336.738 219.95 C 336.716 219.971 336.705 219.98 336.698 219.993 C 336.691 220.004 336.688 220.016 336.686 220.028 C 336.685 220.042 336.688 220.057 336.694 220.086 L 336.861 220.875 C 336.883 220.975 336.893 221.024 336.878 221.053 C 336.865 221.078 336.842 221.094 336.814 221.099 C 336.783 221.105 336.739 221.079 336.651 221.028 L 335.952 220.626 C 335.926 220.61 335.913 220.603 335.899 220.6 C 335.887 220.598 335.874 220.598 335.862 220.6 C 335.848 220.603 335.835 220.61 335.809 220.626 L 335.11 221.028 C 335.022 221.079 334.979 221.105 334.947 221.099 C 334.919 221.094 334.896 221.078 334.883 221.053 C 334.868 221.024 334.878 220.975 334.9 220.875 L 335.067 220.086 C 335.073 220.057 335.077 220.042 335.075 220.028 C 335.074 220.016 335.07 220.004 335.063 219.993 C 335.056 219.98 335.045 219.971 335.023 219.95 L 334.423 219.41 C 334.348 219.342 334.311 219.308 334.305 219.276 C 334.302 219.249 334.311 219.221 334.33 219.201 C 334.353 219.178 334.403 219.173 334.504 219.163 L 335.307 219.078 C 335.336 219.075 335.351 219.073 335.364 219.067 C 335.375 219.062 335.386 219.055 335.394 219.045 C 335.404 219.035 335.409 219.022 335.422 218.994 L 335.75 218.257 Z" stroke-width="2" stroke-linecap="round" stroke-linejoin="round" style="stroke-width: 2; fill: rgb(255, 205, 0);"/>
</svg>