<?xml version="1.0" encoding="utf-8"?>
<svg xmlns="http://www.w3.org/2000/svg" viewBox="36.034 158.061 413.19 170.775">
  <path d="M 76.921 244.626 L 51.477 185.056 L 70.284 185.056 L 91.644 236.371 L 80.411 236.371 L 102.281 185.056 L 119.557 185.056 L 94.112 244.626 Z M 113.566 244.626 L 139.862 185.056 L 157.052 185.056 L 183.263 244.626 L 165.222 244.626 L 144.883 193.566 L 151.691 193.566 L 131.352 244.626 Z M 128.118 233.308 L 132.714 220.458 L 161.392 220.458 L 165.903 233.308 Z M 216.796 245.903 Q 209.732 245.903 203.733 243.647 Q 197.733 241.392 193.308 237.18 Q 188.883 232.967 186.457 227.351 Q 184.032 221.734 184.032 214.841 Q 184.032 207.948 186.457 202.331 Q 188.883 196.715 193.308 192.502 Q 197.733 188.29 203.733 186.035 Q 209.732 183.78 216.796 183.78 Q 225.135 183.78 231.688 186.715 Q 238.241 189.651 242.666 195.183 L 231.518 205.225 Q 228.71 201.821 225.263 199.991 Q 221.816 198.161 217.732 198.161 Q 214.072 198.161 211.136 199.353 Q 208.2 200.544 206.116 202.757 Q 204.031 204.969 202.839 208.033 Q 201.648 211.097 201.648 214.841 Q 201.648 218.585 202.839 221.649 Q 204.031 224.713 206.116 226.925 Q 208.2 229.138 211.136 230.329 Q 214.072 231.521 217.732 231.521 Q 221.816 231.521 225.263 229.691 Q 228.71 227.861 231.518 224.457 L 242.666 234.414 Q 238.241 239.946 231.688 242.924 Q 225.135 245.903 216.796 245.903 Z" style="text-wrap-mode: nowrap; fill: rgb(0, 45, 97);"/>
  <path d="M 50.72 184.556 L 70.617 184.556 L 86.099 221.749 L 101.951 184.556 L 120.314 184.556 L 94.442 245.126 L 76.591 245.126 Z M 93.782 244.126 L 118.8 185.556 L 102.611 185.556 L 86.088 224.325 L 69.951 185.556 L 52.234 185.556 L 77.251 244.126 Z M 139.536 184.556 L 157.378 184.556 L 184.029 245.126 L 164.883 245.126 L 160.375 233.808 L 136.199 233.808 L 131.691 245.126 L 112.799 245.126 Z M 131.013 244.126 L 135.521 232.808 L 161.053 232.808 L 165.561 244.126 L 182.497 244.126 L 156.726 185.556 L 140.188 185.556 L 114.333 244.126 Z M 216.796 246.403 C 212.044 246.403 207.602 245.631 203.557 244.115 C 199.513 242.59 195.954 240.381 192.963 237.542 C 189.981 234.695 187.64 231.337 185.998 227.549 C 184.365 223.753 183.532 219.484 183.532 214.841 C 183.532 210.198 184.365 205.929 185.998 202.133 C 187.64 198.345 189.981 194.987 192.963 192.14 C 195.954 189.3 199.513 187.092 203.557 185.567 C 207.602 184.051 212.044 183.28 216.796 183.28 C 222.404 183.28 227.47 184.285 231.892 186.259 C 236.312 188.246 240.064 191.141 243.056 194.871 L 243.352 195.238 L 231.464 205.947 L 231.132 205.543 C 229.293 203.306 227.281 201.628 225.029 200.433 C 222.785 199.242 220.396 198.661 217.732 198.661 C 215.336 198.661 213.232 199.036 211.324 199.816 C 209.413 200.586 207.827 201.66 206.48 203.1 C 205.12 204.535 204.079 206.213 203.305 208.214 C 202.524 210.209 202.148 212.388 202.148 214.841 C 202.148 217.294 202.524 219.473 203.305 221.468 C 204.079 223.469 205.12 225.147 206.48 226.582 C 207.828 228.022 209.413 229.096 211.324 229.866 C 213.232 230.646 215.336 231.021 217.732 231.021 C 220.396 231.021 222.785 230.44 225.029 229.249 C 227.281 228.054 229.293 226.376 231.132 224.139 L 231.463 223.737 L 243.353 234.357 L 243.056 234.726 C 240.064 238.456 236.313 241.364 231.895 243.379 C 227.472 245.383 222.404 246.403 216.796 246.403 Z M 231.481 242.469 C 235.8 240.514 239.125 237.935 241.978 234.469 L 231.568 225.172 C 229.747 227.286 227.841 228.888 225.497 230.133 C 223.145 231.382 220.514 232.021 217.732 232.021 C 215.248 232.021 212.955 231.601 210.948 230.792 C 208.944 229.974 207.183 228.779 205.752 227.268 C 204.332 225.754 203.188 223.914 202.373 221.83 C 201.566 219.74 201.148 217.38 201.148 214.841 C 201.148 212.302 201.566 209.942 202.373 207.852 C 203.188 205.768 204.332 203.928 205.752 202.414 C 207.183 200.903 208.944 199.708 210.948 198.89 C 212.955 198.081 215.248 197.661 217.732 197.661 C 220.514 197.661 223.145 198.3 225.497 199.549 C 227.841 200.794 229.746 202.395 231.567 204.508 L 241.979 195.129 C 239.126 191.664 235.802 189.098 231.484 187.171 C 227.169 185.232 222.307 184.28 216.796 184.28 C 212.129 184.28 207.863 185.012 203.909 186.503 C 199.953 187.985 196.562 190.088 193.653 192.864 C 190.735 195.635 188.509 198.829 186.916 202.529 C 185.315 206.222 184.532 210.293 184.532 214.841 C 184.532 219.389 185.315 223.46 186.916 227.153 C 188.509 230.853 190.735 234.047 193.653 236.818 C 196.562 239.595 199.953 241.697 203.909 243.179 C 207.863 244.671 212.129 245.403 216.796 245.403 C 222.306 245.403 227.167 244.437 231.481 242.469 Z M 148.287 200.76 L 156.332 220.958 L 140.242 220.958 Z M 154.858 219.958 L 148.287 203.463 L 141.716 219.958 Z" style="fill: rgb(0, 45, 97);"/>
  <path d="M 248.138 184.056 L 267.584 184.056 L 267.584 245.626 L 248.138 245.626 Z M 265.584 243.626 L 265.584 186.056 L 250.138 186.056 L 250.138 243.626 Z" style="fill: rgb(0, 45, 97);"/>
  <path d="M 277.658 184.556 L 292.775 184.556 L 317.57 214.506 L 317.57 184.556 L 335.675 184.556 L 335.675 245.126 L 320.558 245.126 L 295.678 215.074 L 295.678 245.126 L 277.658 245.126 Z M 294.678 244.126 L 294.678 212.298 L 321.028 244.126 L 334.675 244.126 L 334.675 185.556 L 318.57 185.556 L 318.57 217.282 L 292.305 185.556 L 278.658 185.556 L 278.658 244.126 Z M 365.643 184.556 L 383.485 184.556 L 410.136 245.126 L 390.99 245.126 L 386.482 233.808 L 362.306 233.808 L 357.798 245.126 L 338.906 245.126 Z M 357.12 244.126 L 361.628 232.808 L 387.16 232.808 L 391.668 244.126 L 408.604 244.126 L 382.833 185.556 L 366.295 185.556 L 340.44 244.126 Z M 374.394 200.76 L 382.439 220.958 L 366.349 220.958 Z M 380.965 219.958 L 374.394 203.463 L 367.823 219.958 Z" style="fill: rgb(0, 45, 97);"/>
  <path d="M 177.449 261.623 L 225.424 261.623 L 225.424 276.069 L 195.894 276.069 L 195.894 287.578 L 221.85 287.578 L 221.85 302.024 L 195.894 302.024 L 195.894 322.193 L 177.449 322.193 Z M 194.894 321.193 L 194.894 301.024 L 220.85 301.024 L 220.85 288.578 L 194.894 288.578 L 194.894 275.069 L 224.424 275.069 L 224.424 262.623 L 178.449 262.623 L 178.449 321.193 Z M 249.223 261.623 L 267.065 261.623 L 293.716 322.193 L 274.57 322.193 L 270.062 310.875 L 245.886 310.875 L 241.378 322.193 L 222.486 322.193 Z M 240.7 321.193 L 245.208 309.875 L 270.74 309.875 L 275.248 321.193 L 292.184 321.193 L 266.413 262.623 L 249.875 262.623 L 224.02 321.193 Z M 326.483 323.469 C 321.731 323.469 317.289 322.698 313.244 321.182 C 309.2 319.657 305.641 317.448 302.65 314.609 C 299.668 311.762 297.327 308.404 295.686 304.616 C 294.053 300.82 293.219 296.551 293.219 291.908 C 293.219 287.265 294.053 282.996 295.686 279.2 C 297.327 275.412 299.668 272.054 302.65 269.207 C 305.641 266.367 309.2 264.159 313.244 262.634 C 317.289 261.118 321.731 260.346 326.483 260.346 C 332.091 260.346 337.158 261.351 341.579 263.326 C 345.999 265.313 349.751 268.208 352.743 271.938 L 353.039 272.305 L 341.151 283.014 L 340.819 282.61 C 338.98 280.373 336.97 278.691 334.715 277.5 C 332.476 276.302 330.083 275.728 327.419 275.728 C 325.024 275.728 322.92 276.103 321.012 276.883 C 319.101 277.653 317.515 278.727 316.167 280.167 C 314.807 281.602 313.766 283.28 312.992 285.281 C 312.211 287.276 311.835 289.455 311.835 291.908 C 311.835 294.361 312.211 296.54 312.992 298.535 C 313.766 300.536 314.807 302.214 316.167 303.649 C 317.515 305.089 319.101 306.163 321.012 306.933 C 322.92 307.713 325.024 308.088 327.419 308.088 C 330.083 308.088 332.476 307.514 334.716 306.316 C 336.97 305.125 338.98 303.443 340.819 301.206 L 341.15 300.804 L 353.04 311.424 L 352.743 311.793 C 349.751 315.522 346 318.43 341.582 320.446 C 337.159 322.449 332.092 323.469 326.483 323.469 Z M 341.168 319.536 C 345.487 317.58 348.812 315.001 351.665 311.536 L 341.255 302.239 C 339.434 304.353 337.526 305.951 335.184 307.2 C 332.829 308.442 330.201 309.088 327.419 309.088 C 324.935 309.088 322.643 308.668 320.636 307.859 C 318.632 307.041 316.871 305.846 315.439 304.335 C 314.019 302.821 312.875 300.981 312.06 298.897 C 311.253 296.807 310.835 294.447 310.835 291.908 C 310.835 289.369 311.253 287.009 312.06 284.919 C 312.875 282.835 314.019 280.995 315.439 279.481 C 316.871 277.97 318.632 276.775 320.636 275.957 C 322.643 275.148 324.935 274.728 327.419 274.728 C 330.201 274.728 332.829 275.374 335.184 276.616 C 337.526 277.865 339.433 279.462 341.254 281.575 L 351.666 272.196 C 348.813 268.731 345.489 266.165 341.171 264.238 C 336.856 262.298 331.995 261.346 326.483 261.346 C 321.816 261.346 317.55 262.078 313.596 263.57 C 309.64 265.052 306.249 267.155 303.34 269.931 C 300.422 272.702 298.196 275.896 296.604 279.596 C 295.003 283.289 294.219 287.36 294.219 291.908 C 294.219 296.456 295.003 300.527 296.604 304.22 C 298.196 307.92 300.422 311.114 303.34 313.885 C 306.249 316.662 309.64 318.764 313.596 320.246 C 317.55 321.737 321.816 322.469 326.483 322.469 C 331.994 322.469 336.855 321.504 341.168 319.536 Z M 358.314 261.623 L 376.76 261.623 L 376.76 322.193 L 358.314 322.193 Z M 375.76 321.193 L 375.76 262.623 L 359.314 262.623 L 359.314 321.193 Z M 387.334 261.623 L 405.78 261.623 L 405.78 307.407 L 433.863 307.407 L 433.863 322.193 L 387.334 322.193 Z M 432.863 321.193 L 432.863 308.407 L 404.78 308.407 L 404.78 262.623 L 388.334 262.623 L 388.334 321.193 Z M 257.974 277.827 L 266.019 298.025 L 249.929 298.025 Z M 264.545 297.025 L 257.974 280.53 L 251.403 297.025 Z" style="fill: rgb(0, 45, 97);"/>
  <path d="M 273.819 176.009 L 273.819 183.416 L 241.843 183.416 L 241.843 176.009 Z M 243.843 181.416 L 271.819 181.416 L 271.819 178.009 L 243.843 178.009 Z" style="fill: rgb(0, 45, 97);"/>
  <path d="M 263.674 260.574 L 251.959 260.574 L 257.816 246.113 L 263.674 260.574 Z M 254.927 258.574 L 260.706 258.574 L 257.816 251.441 L 254.927 258.574 Z" style="transform-box: fill-box; transform-origin: 50% 50%; stroke-width: 1; fill: rgb(0, 45, 97);" transform="matrix(-1, 0, 0, -1, 0.000042, -0.000011)"/>
  <path d="M 263.786 168.458 C 263.786 170.031 263.065 171.646 262.042 172.669 C 261.019 173.692 259.404 174.413 257.831 174.413 C 256.258 174.413 254.643 173.692 253.62 172.669 C 252.597 171.646 251.876 170.031 251.876 168.458 C 251.876 166.885 252.597 165.27 253.62 164.247 C 254.643 163.224 256.258 162.503 257.831 162.503 C 259.404 162.503 261.019 163.224 262.042 164.247 C 263.065 165.27 263.786 166.885 263.786 168.458 Z M 260.628 165.661 C 259.857 164.891 258.995 164.503 257.831 164.503 C 256.667 164.503 255.805 164.891 255.034 165.661 C 254.264 166.432 253.876 167.294 253.876 168.458 C 253.876 169.622 254.264 170.484 255.034 171.255 C 255.805 172.025 256.667 172.413 257.831 172.413 C 258.995 172.413 259.857 172.025 260.628 171.255 C 261.398 170.484 261.786 169.622 261.786 168.458 C 261.786 167.294 261.398 166.432 260.628 165.661 Z" style="fill: rgb(0, 45, 97);"/>
  <path d="M 278.158 244.626 L 278.158 185.056 L 292.54 185.056 L 324.878 224.117 L 318.07 224.117 L 318.07 185.056 L 335.175 185.056 L 335.175 244.626 L 320.793 244.626 L 288.455 205.565 L 295.178 205.565 L 295.178 244.626 Z M 339.673 244.626 L 365.969 185.056 L 383.159 185.056 L 409.37 244.626 L 391.329 244.626 L 370.99 193.566 L 377.798 193.566 L 357.459 244.626 Z M 354.225 233.308 L 358.82 220.458 L 387.499 220.458 L 392.009 233.308 Z" style="text-wrap-mode: nowrap; fill: rgb(0, 45, 97);"/>
  <path d="M 177.949 321.693 L 177.949 262.123 L 224.924 262.123 L 224.924 275.569 L 195.394 275.569 L 195.394 321.693 Z M 194.203 301.524 L 194.203 288.078 L 221.35 288.078 L 221.35 301.524 Z M 223.253 321.693 L 249.549 262.123 L 266.739 262.123 L 292.95 321.693 L 274.909 321.693 L 254.57 270.633 L 261.378 270.633 L 241.039 321.693 Z M 237.805 310.375 L 242.401 297.525 L 271.08 297.525 L 275.59 310.375 Z M 326.483 322.969 Q 319.419 322.969 313.42 320.714 Q 307.42 318.459 302.995 314.247 Q 298.57 310.034 296.145 304.418 Q 293.719 298.801 293.719 291.908 Q 293.719 285.015 296.145 279.398 Q 298.57 273.782 302.995 269.569 Q 307.42 265.357 313.42 263.102 Q 319.419 260.846 326.483 260.846 Q 334.823 260.846 341.375 263.782 Q 347.928 266.718 352.353 272.25 L 341.205 282.292 Q 338.397 278.888 334.95 277.058 Q 331.504 275.228 327.419 275.228 Q 323.76 275.228 320.824 276.42 Q 317.888 277.611 315.803 279.824 Q 313.718 282.036 312.526 285.1 Q 311.335 288.164 311.335 291.908 Q 311.335 295.652 312.526 298.716 Q 313.718 301.78 315.803 303.992 Q 317.888 306.205 320.824 307.396 Q 323.76 308.588 327.419 308.588 Q 331.504 308.588 334.95 306.758 Q 338.397 304.928 341.205 301.524 L 352.353 311.481 Q 347.928 317.012 341.375 319.991 Q 334.823 322.969 326.483 322.969 Z M 358.814 321.693 L 358.814 262.123 L 376.26 262.123 L 376.26 321.693 Z M 387.834 321.693 L 387.834 262.123 L 405.28 262.123 L 405.28 307.907 L 433.363 307.907 L 433.363 321.693 Z" style="text-wrap-mode: nowrap; fill: rgb(0, 45, 97);"/>
  <path d="M 242.843 177.009 H 272.819 V 182.416 H 242.843 V 177.009 Z" style="stroke-width: 2; fill: rgb(0, 45, 97);"/>
  <path d="M 262.786 168.458 A 4.955 4.955 0 0 1 257.831 173.413 A 4.955 4.955 0 0 1 252.876 168.458 A 4.955 4.955 0 0 1 257.831 163.503 A 4.955 4.955 0 0 1 262.786 168.458 Z" style="stroke-width: 2; fill: rgb(0, 45, 97);"/>
  <text style="fill: rgb(0, 45, 97); font-family: Arial, sans-serif; font-size: 28px; white-space: pre;" x="636.238" y="73.648"> </text>
  <text style="fill: rgb(0, 45, 97); font-family: Arial, sans-serif; font-size: 28px; white-space: pre;" x="352.495" y="66.685"> </text>
</svg>